# xmcd
#
# Track frame offsets:
#	150
#	18759
#	35725
#	55157
#	72164
#	92375
#	111196
#	135484
#	150362
#	167178
#	183971
#	198446
#	219727
#	237998
#
# Disc length: 3399 seconds
#
# Revision: 0
# Processed by: cddbd v1.5.1PL2 Copyright (c) Steve Scherf et al.
# Submitted via: audiograbber 1.83.01
#
DISCID=b60d450e
DTITLE=кикиам  ладиамоу  - та йака паидиа 
DYEAR=2003
DGENRE=екажяо каийа
TTITLE0=кикиам  ладиамоу  - йапоио кахос ециме
TTITLE1=кикиам  ладиамоу  - та йака паидиа
TTITLE2=кикиам  ладиамоу  - паяаццекиа
TTITLE3=кикиам  ладиамоу  - йаи паяаликаы
TTITLE4=кикиам  ладиамоу  - ека ма ле цкутысеис
TTITLE5=кикиам  ладиамоу  - акка веяиа
TTITLE6=кикиам  ладиамоу  - теяла ои деслои
TTITLE7=кикиам  ладиамоу  - ежуцес йаи лоу то вакасес
TTITLE8=кикиам  ладиамоу  - ока идиа т' ажгмы
TTITLE9=кикиам  ладиамоу  - ти ма поуле тыяа
TTITLE10=кикиам  ладиамоу  - ха то пакеьы
TTITLE11=кикиам  ладиамоу and петяос илбяиос - ока текеиымоуме еды
TTITLE12=кикиам  ладиамоу  - лгпыс ма текеиымоуле 
TTITLE13=кикиам  ладиамоу  - ема тяацоуди пес лоу айола
EXTD=
EXTT0=
EXTT1=
EXTT2=
EXTT3=
EXTT4=
EXTT5=
EXTT6=
EXTT7=
EXTT8=
EXTT9=
EXTT10=
EXTT11=
EXTT12=
EXTT13=
PLAYORDER=
